<svg width="12" height="12" viewBox="0 0 12 12" fill="none" xmlns="http://www.w3.org/2000/svg">
<g id="tabler-icon-plant-2">
<path id="Vector (Stroke)" fill-rule="evenodd" clip-rule="evenodd" d="M5.82737 1.81917C5.92398 1.72694 6.07602 1.72694 6.17263 1.81917C6.70249 2.32499 7.11717 2.93902 7.38844 3.61948C7.61208 4.18044 7.73393 4.7757 7.74936 5.37738C8.67078 4.65081 9.81473 4.25 11 4.25C11.0663 4.25 11.1299 4.27634 11.1768 4.32322C11.2237 4.37011 11.25 4.4337 11.25 4.5C11.25 5.89239 10.6969 7.22774 9.71231 8.21231C8.72774 9.19688 7.39239 9.75 6 9.75C4.60761 9.75 3.27226 9.19688 2.28769 8.21231C1.30312 7.22774 0.75 5.89239 0.75 4.5C0.75 4.4337 0.776339 4.37011 0.823223 4.32322C0.870107 4.27634 0.933696 4.25 1 4.25C1.68944 4.25 2.37213 4.3858 3.00909 4.64963C3.45529 4.83445 3.87292 5.07957 4.25064 5.3774C4.26607 4.77571 4.38792 4.18045 4.61156 3.61948C4.88283 2.93902 5.29751 2.32499 5.82737 1.81917ZM4.7449 5.82057C5.21707 6.30114 5.59244 6.86821 5.85037 7.49091C5.90595 7.6251 5.95585 7.76132 6 7.89921C6.24804 7.12454 6.67495 6.41103 7.2551 5.82057C7.24738 5.79434 7.24387 5.76639 7.24531 5.73753C7.27826 5.07764 7.16867 4.41838 6.92399 3.80464C6.70959 3.26686 6.39589 2.77507 6 2.35464C5.60411 2.77507 5.2904 3.26686 5.07601 3.80464C4.83133 4.41838 4.72174 5.07764 4.75469 5.73753C4.75613 5.76638 4.75262 5.79434 4.7449 5.82057ZM5.74305 9.24305C5.71401 8.70709 5.59431 8.17929 5.38843 7.68225C5.14972 7.10596 4.79984 6.58232 4.35876 6.14124C3.91768 5.70016 3.39404 5.35028 2.81775 5.11157C2.32071 4.90569 1.79291 4.78599 1.25695 4.75695C1.32008 5.9231 1.8112 7.02871 2.64124 7.85876C3.47129 8.6888 4.5769 9.17992 5.74305 9.24305ZM6.25695 9.24305C7.4231 9.17992 8.52871 8.6888 9.35876 7.85876C10.1888 7.02871 10.6799 5.9231 10.7431 4.75695C9.5769 4.82008 8.47129 5.3112 7.64124 6.14124C6.8112 6.97129 6.32008 8.0769 6.25695 9.24305Z" fill="#039BE5"/>
</g>
</svg>
