<svg width="12" height="12" viewBox="0 0 12 12" fill="none" xmlns="http://www.w3.org/2000/svg">
<g id="tabler-icon-align-box-bottom-center-filled">
<path id="Vector" d="M9.1665 1C10.1465 1 10.9465 1.7685 10.9975 2.736L11 2.8335V9.1665C11 10.1465 10.2315 10.9465 9.264 10.9975L9.1665 11H2.8335C2.36409 11 1.91255 10.82 1.5719 10.497C1.23126 10.1741 1.02746 9.73275 1.0025 9.264L1 9.1665V2.8335C1 1.8535 1.7685 1.0535 2.736 1.0025L2.8335 1H9.1665ZM4.5 7.5C4.36739 7.5 4.24021 7.55268 4.14645 7.64645C4.05268 7.74021 4 7.86739 4 8V9L4.0035 9.0585C4.01855 9.18505 4.08136 9.30107 4.17908 9.38287C4.27681 9.46466 4.40208 9.50605 4.5293 9.49859C4.65652 9.49112 4.77609 9.43535 4.86358 9.34268C4.95106 9.25002 4.99986 9.12744 5 9V8L4.9965 7.9415C4.98217 7.81987 4.9237 7.70774 4.83219 7.62636C4.74067 7.54498 4.62247 7.50002 4.5 7.5ZM6 5.5C5.86739 5.5 5.74021 5.55268 5.64645 5.64645C5.55268 5.74021 5.5 5.86739 5.5 6V9L5.5035 9.0585C5.51855 9.18505 5.58136 9.30107 5.67908 9.38287C5.77681 9.46466 5.90208 9.50605 6.0293 9.49859C6.15652 9.49112 6.27609 9.43535 6.36358 9.34268C6.45106 9.25002 6.49986 9.12744 6.5 9V6L6.4965 5.9415C6.48217 5.81987 6.4237 5.70774 6.33219 5.62636C6.24067 5.54498 6.12247 5.50002 6 5.5ZM7.5 6.5C7.36739 6.5 7.24021 6.55268 7.14645 6.64645C7.05268 6.74021 7 6.86739 7 7V9L7.0035 9.0585C7.01855 9.18505 7.08136 9.30107 7.17908 9.38287C7.27681 9.46466 7.40208 9.50605 7.5293 9.49859C7.65652 9.49112 7.77609 9.43535 7.86358 9.34268C7.95106 9.25002 7.99986 9.12744 8 9V7L7.9965 6.9415C7.98217 6.81987 7.9237 6.70774 7.83219 6.62636C7.74067 6.54498 7.62247 6.50002 7.5 6.5Z" fill="#039BE5"/>
</g>
</svg>
