<svg width="12" height="12" viewBox="0 0 12 12" fill="none" xmlns="http://www.w3.org/2000/svg">
<g id="tabler-icon-affiliate-filled">
<path id="Vector" d="M9.25 1.5C9.43378 1.50005 9.61529 1.54063 9.7816 1.61884C9.94791 1.69705 10.0949 1.81098 10.2122 1.95249C10.3294 2.09401 10.414 2.25964 10.46 2.43759C10.5059 2.61554 10.512 2.80143 10.4779 2.98202C10.4438 3.16261 10.3703 3.33345 10.2626 3.48238C10.1549 3.63132 10.0157 3.75467 9.85494 3.84367C9.69414 3.93266 9.5157 3.9851 9.33232 3.99726C9.14894 4.00942 8.96514 3.98099 8.794 3.914L6.516 6.1915C6.89049 6.73396 7.05667 7.39334 6.984 8.0485L8.296 8.442C8.48169 8.22295 8.73714 8.07451 9.0194 8.02165C9.30166 7.96879 9.59351 8.01472 9.84588 8.15173C10.0983 8.28874 10.2958 8.50846 10.4052 8.77396C10.5146 9.03946 10.5293 9.33454 10.4468 9.60959C10.3642 9.88463 10.1895 10.1229 9.95195 10.2842C9.71441 10.4456 9.42856 10.5203 9.14245 10.4957C8.85634 10.4711 8.58742 10.3487 8.38091 10.1492C8.1744 9.94966 8.04289 9.6851 8.0085 9.4L6.697 9.006C6.41976 9.54681 5.97118 9.98056 5.42135 10.2395C4.87151 10.4984 4.25141 10.5678 3.65791 10.437C3.06442 10.3062 2.53097 9.9825 2.14093 9.51644C1.75088 9.05039 1.5262 8.46825 1.502 7.861L1.5 7.75L1.502 7.6395C1.52149 7.1528 1.66989 6.68001 1.93204 6.26949C2.19419 5.85896 2.56067 5.52543 2.994 5.303L2.6 3.991C2.31176 3.95639 2.04458 3.82246 1.84439 3.61223C1.64419 3.40199 1.52348 3.12858 1.503 2.839L1.5 2.75L1.5025 2.668C1.51603 2.46199 1.58037 2.26254 1.68978 2.08747C1.79919 1.91239 1.95026 1.76714 2.12949 1.66469C2.30873 1.56224 2.51055 1.50577 2.71693 1.50034C2.92331 1.49491 3.12782 1.54068 3.3122 1.63356C3.49657 1.72645 3.65507 1.86355 3.77354 2.03263C3.892 2.20171 3.96675 2.3975 3.99109 2.60251C4.01544 2.80752 3.98863 3.01537 3.91305 3.20749C3.83748 3.39961 3.7155 3.57002 3.558 3.7035L3.9515 5.016C4.60666 4.94333 5.26603 5.10951 5.8085 5.484L8.086 3.206C8.03901 3.0864 8.01084 2.96023 8.0025 2.832L8 2.75L8.0025 2.668C8.02332 2.35132 8.16381 2.05442 8.39548 1.83752C8.62714 1.62062 8.93264 1.49995 9.25 1.5Z" fill="#039BE5"/>
</g>
</svg>
